<?xml version="1.0" encoding="UTF-8"?>
<svg id="Capa_2" data-name="Capa 2" xmlns="http://www.w3.org/2000/svg" viewBox="0 0 730.49 382.12">
  <defs>
    <style>
      .cls-1 {
        fill: #00b1ea;
      }

      .cls-2 {
        fill: #fff;
      }
    </style>
  </defs>
  <g id="Capa_1-2" data-name="Capa 1">
    <g>
      <path class="cls-1" d="M312.45,23.6c0-12.59-10.2-22.79-22.79-22.79s-22.79,10.2-22.79,22.79c0,6.19,2.48,11.8,6.48,15.9v210.22l-2.26,1.72-101.93-70.38v-74.27c4.04-4.11,6.55-9.75,6.55-15.97,0-12.59-10.2-22.79-22.79-22.79s-22.79,10.2-22.79,22.79c0,6.24,2.51,11.89,6.57,16v91.28l107.21,74.03-31.44,23.91-111.28-80.81v-108.44c4.05-4.11,6.55-9.75,6.55-15.98,0-12.59-10.2-22.79-22.79-22.79s-22.79,10.2-22.79,22.79c0,6.24,2.51,11.88,6.57,16v124.97l116.76,84.78-32.56,24.76-120.44-91.6V33.28h172.23v96.13c-4.05,4.11-6.56,9.76-6.56,15.99,0,12.59,10.2,22.79,22.79,22.79s22.79-10.2,22.79-22.79c0-6.23-2.51-11.87-6.56-15.99V.81H0v265.01l152.91,116.29,152.91-116.29V39.68c4.1-4.12,6.64-9.8,6.64-16.07Z"/>
      <g>
        <path class="cls-2" d="M525.94,0v174.42h-33.89V58.81l-52.08,84.47h-11.21l-52.33-84.47v115.62h-33.64V0h35.88l55.57,89.7L489.81,0h36.13Z"/>
        <path class="cls-2" d="M591.96,0v174.42h-33.64V0h33.64Z"/>
        <path class="cls-2" d="M727.26,143.03v31.4h-102.91V0h100.67v31.4h-67.03v39.37h61.3v31.4h-61.3v40.86h69.27Z"/>
      </g>
      <g>
        <g>
          <polygon class="cls-2" points="366 234.7 344.86 203.52 342.36 203.52 342.36 252.03 344.86 252.03 344.86 208.16 365.44 238.44 366.55 238.44 387.2 208.16 387.2 252.03 389.63 252.03 389.63 203.52 387.2 203.52 366 234.7"/>
          <path class="cls-2" d="M416.04,203.52l-18.09,48.51h2.7l5.54-14.83h22.39l5.48,14.83h2.77l-18.09-48.51h-2.7ZM407.1,234.7l10.26-27.51,10.26,27.51h-20.51Z"/>
          <polygon class="cls-2" points="454.44 232.07 437.18 203.52 434.06 203.52 453.19 234.56 453.19 252.03 455.68 252.03 455.68 234.56 474.74 203.52 471.69 203.52 454.44 232.07"/>
          <path class="cls-2" d="M501.43,202.68c-13.65,0-23.91,11.09-23.91,25.09s10.26,25.16,23.91,25.16,23.91-11.16,23.91-25.16-10.26-25.09-23.91-25.09ZM501.43,250.43c-12.27,0-21.42-10.05-21.42-22.66s9.15-22.66,21.42-22.66,21.42,10.05,21.42,22.66-9.15,22.66-21.42,22.66Z"/>
          <path class="cls-2" d="M564.36,217.31c0-8.38-6.1-13.79-16.7-13.79h-12.61v48.51h2.49v-20.93h10.12c1.18,0,2.29-.07,3.4-.21l13.1,21.14h2.98l-13.38-21.62c6.79-1.66,10.6-6.44,10.6-13.1ZM547.66,228.67h-10.12v-22.66h10.12c9.7,0,14.21,4.78,14.21,11.3s-4.5,11.37-14.21,11.37Z"/>
          <rect class="cls-2" x="575.45" y="203.52" width="2.43" height="48.51"/>
          <path class="cls-2" d="M604.56,226.59c-6.58-2.01-12.41-3.6-12.41-10.95,0-6.03,5.06-10.53,10.81-10.53,5.27,0,9.22,2.49,10.74,7.21l2.42-.56c-1.87-5.89-6.72-9.08-13.17-9.08-7.14,0-13.31,5.54-13.31,12.96,0,9.15,7.55,11.3,14.21,13.31,6.31,1.94,11.85,2.98,11.85,10.53,0,6.52-5.06,10.95-12.54,10.95-7.9,0-12.06-4.71-13.1-8.87l-2.36.76c1.45,5.34,6.79,10.6,15.46,10.6,10.67,0,15.11-7.28,15.11-13.45,0-9.35-7.34-10.95-13.72-12.89Z"/>
          <polygon class="cls-2" points="623.35 206.01 636.65 206.01 636.65 252.03 639.08 252.03 639.08 206.01 652.39 206.01 652.39 203.52 623.35 203.52 623.35 206.01"/>
          <path class="cls-2" d="M671.86,203.52l-18.09,48.51h2.7l5.54-14.83h22.39l5.48,14.83h2.77l-18.09-48.51h-2.7ZM662.92,234.7l10.26-27.51,10.26,27.51h-20.51Z"/>
          <path class="cls-2" d="M715.18,226.59c-6.58-2.01-12.41-3.6-12.41-10.95,0-6.03,5.06-10.53,10.81-10.53,5.27,0,9.22,2.49,10.74,7.21l2.42-.56c-1.87-5.89-6.72-9.08-13.17-9.08-7.14,0-13.31,5.54-13.31,12.96,0,9.15,7.55,11.3,14.21,13.31,6.31,1.94,11.85,2.98,11.85,10.53,0,6.52-5.06,10.95-12.54,10.95-7.9,0-12.06-4.71-13.1-8.87l-2.36.76c1.45,5.34,6.79,10.6,15.46,10.6,10.67,0,15.11-7.28,15.11-13.45,0-9.35-7.34-10.95-13.72-12.89Z"/>
        </g>
        <g>
          <path class="cls-2" d="M352.78,269.46h-10.35v35.71h10.35c10.2,0,17.6-7.51,17.6-17.86s-7.4-17.85-17.6-17.85ZM352.78,302.98h-8.1v-31.27h8.1c8.76,0,15.36,6.71,15.36,15.61s-6.6,15.66-15.36,15.66Z"/>
          <polygon class="cls-2" points="379.21 287.83 394.83 287.83 394.83 285.59 379.21 285.59 379.21 271.7 395.99 271.7 395.99 269.46 377.01 269.46 377.01 305.17 396.44 305.17 396.44 302.98 379.21 302.98 379.21 287.83"/>
          <rect class="cls-2" x="416.68" y="269.46" width="2.19" height="35.71"/>
          <polygon class="cls-2" points="451.66 301.14 429.73 269.55 429.66 269.46 427.52 269.46 427.52 305.17 429.76 305.17 429.76 273.54 451.7 305.08 451.76 305.17 453.91 305.17 453.91 269.46 451.66 269.46 451.66 301.14"/>
          <polygon class="cls-2" points="461.04 271.7 470.72 271.7 470.72 305.17 472.91 305.17 472.91 271.7 482.59 271.7 482.59 269.46 461.04 269.46 461.04 271.7"/>
          <polygon class="cls-2" points="491.92 287.83 507.54 287.83 507.54 285.59 491.92 285.59 491.92 271.7 508.7 271.7 508.7 269.46 489.72 269.46 489.72 305.17 509.16 305.17 509.16 302.98 491.92 302.98 491.92 287.83"/>
          <path class="cls-2" d="M531.86,288.34h13.51v.44c-.21,9.13-5.57,14.81-14,14.81s-15.36-7.15-15.36-16.27,6.75-16.27,15.36-16.27c4.73,0,9.16,2.12,12.13,5.82l.12.15,1.87-1.25-.15-.18c-3.38-4.28-8.48-6.73-13.98-6.73-9.87,0-17.6,8.11-17.6,18.46s7.73,18.51,17.6,18.51c6.64,0,11.62-3.13,14.14-8.84l.32,8.18h1.78v-19.03h-15.75v2.19Z"/>
          <path class="cls-2" d="M576.25,279.7c0-6.32-4.74-10.24-12.36-10.24h-9.39v35.71h2.24v-15.22h7.14c.81,0,1.58-.04,2.36-.13l9.45,15.25.06.1h2.68l-9.78-15.8c4.83-1.29,7.59-4.8,7.59-9.66ZM556.74,271.7h7.14c6.43,0,10.12,2.92,10.12,8s-3.69,8.05-10.12,8.05h-7.14v-16.05Z"/>
          <path class="cls-2" d="M596.35,269.46h-2.27l-13.21,35.42-.11.29h2.43l4.03-10.79h15.98l3.93,10.64.05.14h2.48l-13.26-35.57-.05-.14ZM602.34,292.14h-14.3l7.15-19.18,7.15,19.18Z"/>
          <path class="cls-2" d="M641.9,297.81c-2.99,3.67-7.42,5.77-12.13,5.77-8.61,0-15.36-7.15-15.36-16.27s6.75-16.27,15.36-16.27c4.73,0,9.16,2.12,12.13,5.82l.12.15,1.87-1.25-.15-.18c-3.43-4.28-8.53-6.73-13.98-6.73-9.87,0-17.6,8.11-17.6,18.46s7.73,18.51,17.6,18.51c5.42,0,10.52-2.47,13.98-6.78l.15-.19-1.88-1.19-.12.15Z"/>
          <rect class="cls-2" x="649.92" y="269.46" width="2.19" height="35.71"/>
          <polygon class="cls-2" points="681.42 258.27 678.58 258.27 675.3 265.3 677.02 265.3 681.42 258.27"/>
          <path class="cls-2" d="M676.35,268.85c-9.87,0-17.6,8.11-17.6,18.46s7.73,18.51,17.6,18.51,17.6-8.13,17.6-18.51-7.73-18.46-17.6-18.46ZM676.35,303.58c-8.61,0-15.36-7.15-15.36-16.27s6.75-16.27,15.36-16.27,15.36,7.14,15.36,16.27-6.75,16.27-15.36,16.27Z"/>
          <polygon class="cls-2" points="724.73 269.46 724.73 301.14 702.79 269.55 702.72 269.46 700.58 269.46 700.58 305.17 702.83 305.17 702.83 273.54 724.76 305.08 724.83 305.17 726.97 305.17 726.97 269.46 724.73 269.46"/>
        </g>
        <g>
          <polygon class="cls-2" points="344.36 345.64 363.51 345.64 363.51 343.21 344.36 343.21 344.36 325.88 364.93 325.88 364.93 323.44 341.98 323.44 341.98 366.89 365.48 366.89 365.48 364.52 344.36 364.52 344.36 345.64"/>
          <polygon class="cls-2" points="376.98 323.44 374.54 323.44 374.54 366.89 397.61 366.89 397.61 364.52 376.98 364.52 376.98 323.44"/>
          <polygon class="cls-2" points="408.42 345.64 427.57 345.64 427.57 343.21 408.42 343.21 408.42 325.88 428.99 325.88 428.99 323.44 406.04 323.44 406.04 366.89 429.54 366.89 429.54 364.52 408.42 364.52 408.42 345.64"/>
          <path class="cls-2" d="M471.98,358.06l-.06.08c-3.7,4.53-9.16,7.13-14.99,7.13-5.22,0-10.04-2.08-13.57-5.85-3.49-3.74-5.42-8.8-5.42-14.24s1.92-10.5,5.42-14.24c3.53-3.77,8.34-5.85,13.57-5.85,5.85,0,11.31,2.62,14.99,7.19l.06.08,2.03-1.36-.07-.09c-4.18-5.2-10.38-8.19-17.01-8.19-5.88,0-11.32,2.32-15.3,6.53-3.95,4.18-6.12,9.84-6.12,15.93s2.17,11.77,6.12,15.96c3.98,4.24,9.42,6.57,15.3,6.57,6.6,0,12.8-3.01,17.01-8.26l.08-.09-1.96-1.23-.08-.05Z"/>
          <polygon class="cls-2" points="479.31 325.88 491.17 325.88 491.17 366.89 493.55 366.89 493.55 325.88 505.4 325.88 505.4 323.44 479.31 323.44 479.31 325.88"/>
          <path class="cls-2" d="M540.8,335.84c0-3.74-1.36-6.86-3.94-9.03-2.62-2.2-6.44-3.37-11.06-3.37h-11.35v43.45h2.44v-18.65h8.91c1.02,0,2-.06,2.97-.18l11.64,18.78.03.05h2.91l-11.95-19.31c5.97-1.52,9.39-5.79,9.39-11.74ZM538.36,335.84c0,6.37-4.58,10.02-12.56,10.02h-8.91v-19.98h8.91c7.98,0,12.56,3.63,12.56,9.96Z"/>
          <path class="cls-2" d="M568.8,322.7c-5.88,0-11.31,2.32-15.29,6.53-3.95,4.18-6.12,9.84-6.12,15.93s2.17,11.77,6.12,15.96c3.98,4.24,9.41,6.57,15.29,6.57s11.31-2.33,15.3-6.57c3.95-4.2,6.12-9.87,6.12-15.96s-2.17-11.75-6.12-15.93c-3.98-4.21-9.41-6.53-15.3-6.53ZM587.78,345.17c0,5.45-1.92,10.51-5.42,14.24-3.53,3.77-8.34,5.85-13.57,5.85s-10.04-2.08-13.56-5.85c-3.49-3.74-5.42-8.8-5.42-14.24s1.92-10.5,5.42-14.24c3.53-3.77,8.34-5.85,13.56-5.85s10.04,2.08,13.57,5.85c3.49,3.74,5.42,8.79,5.42,14.24Z"/>
          <polygon class="cls-2" points="574.63 309.89 574.74 309.73 571.63 309.73 567.77 318.03 569.54 318.03 574.63 309.89"/>
          <polygon class="cls-2" points="628.24 362.61 601.07 323.49 601.04 323.44 598.65 323.44 598.65 366.89 601.09 366.89 601.09 327.78 628.26 366.85 628.29 366.89 630.68 366.89 630.68 323.44 628.24 323.44 628.24 362.61"/>
          <rect class="cls-2" x="641.59" y="323.44" width="2.37" height="43.45"/>
          <path class="cls-2" d="M688.8,358.13c-3.7,4.53-9.16,7.13-14.99,7.13-5.22,0-10.04-2.08-13.57-5.85-3.49-3.74-5.42-8.8-5.42-14.24s1.92-10.5,5.42-14.24c3.53-3.77,8.34-5.85,13.57-5.85,5.85,0,11.31,2.62,14.99,7.19l.06.08,2.04-1.36-.07-.09c-4.18-5.2-10.38-8.19-17.01-8.19-5.88,0-11.32,2.32-15.3,6.53-3.95,4.18-6.12,9.84-6.12,15.93s2.17,11.77,6.12,15.96c3.98,4.24,9.42,6.57,15.3,6.57,6.6,0,12.8-3.01,17.01-8.26l.08-.09-2.04-1.29-.06.07Z"/>
          <path class="cls-2" d="M714.32,323.51l-.03-.07h-2.56l-16.15,43.31-.05.15h2.64l4.94-13.22h19.8l4.85,13.15.03.07h2.7l-16.18-43.38ZM721.97,351.24h-17.97l8.99-24.1,8.98,24.1Z"/>
        </g>
      </g>
    </g>
  </g>
</svg>