<?xml version="1.0" encoding="UTF-8"?>
<svg id="Capa_2" data-name="Capa 2" xmlns="http://www.w3.org/2000/svg" viewBox="0 0 889.7 179.86">
  <defs>
    <style>
      .cls-1 {
        fill: #fff;
      }
    </style>
  </defs>
  <g id="svg3086">
    <g>
      <path class="cls-1" d="M380.68,179.7c-20.47-.02-40.47-4.21-56.1-14.05-16.43-10.35-20.37-31.67-15.47-48.13l39.13.02,2.88,22.43c6.76,4.54,18.74,8.8,28.19,8.8h125.77c10.13,0,22.51-2.47,30.53-8.34,6.86-5.02,7.8-22.97.57-28.13-5.92-4.22-17.77-6.05-25.49-6.08l-112.13-.43c-19.51-.07-39.71-2.62-57.79-7.09-21.31-5.27-32.45-21.99-33.52-42.75-1.13-22.02,8.37-41.2,30.43-48.33C352.1,2.98,368.94.04,384.93.04l114.71.03c16.64,0,33.95,3.25,49.1,8.23,21.07,6.93,32.24,25.58,27.55,48.98l-40.37-.3-2.64-19.28c-1.54-11.28-145.37-6.01-161.02-5.31-7.11.32-16.37,5.07-19.91,9.19-3.96,4.62-4.34,20.42.76,23.83,8.02,5.37,19.25,7.25,29.02,7.27l124.6.37c16.96.05,34.84,3.41,50.11,8.94,19.28,6.98,26.61,23.4,26.86,42.26.29,21.93-8.88,40.93-31.34,48.04-14.46,4.57-31.26,7.52-47.27,7.5l-124.42-.11Z"/>
      <path class="cls-1" d="M274.2,49.82c8.2,40.56,9.45,107.22-40.25,123.57-15.1,3.49-29.71,5.5-45.73,6.48l-188.23-.2V.37s180.07-.37,180.07-.37c18.13.68,35,2.31,52.32,5.14,21.45,6.98,37.2,21.9,41.81,44.68ZM236.01,115.23c.67-18.35.54-36.81-.61-53.9-3.31-18.55-14.95-28.16-33.82-30.11l-160.37-.14.04,118.18,155.08-.09c21.38-1.08,36.4-11.54,39.67-33.95Z"/>
      <path class="cls-1" d="M683.89,149.25l139.13.54c6.61.03,20.58-3.77,23.31-9.37,3.94-8.12,3.38-18.46,3.93-29.48l38.26-.47c3.39,22.74.77,51.84-25.29,61.41-14.34,5.27-30.91,7.64-46.91,7.64h-125.62c-35.21,0-73.74-12.76-75.8-53.26-1.23-24.22-1.25-48.19-.04-72.4,2.09-42.05,42.8-53.41,78.59-53.35l125.68.22c19.18.03,40.28,4.51,54.15,16.94,13.85,12.42,13.31,31.48,11.04,49.1l-35.38.24-3.05-22.76c-.85-6.34-13.8-13.3-21.21-13.28l-141.58.33c-14,.03-27.59,10.91-27.71,23.95l-.57,63.86c-.14,15.57,9.46,30.07,29.07,30.15Z"/>
    </g>
  </g>
</svg>