<?xml version="1.0" encoding="UTF-8"?>
<svg id="Capa_2" data-name="Capa 2" xmlns="http://www.w3.org/2000/svg" viewBox="0 0 1010.81 217.53">
  <defs>
    <style>
      .cls-1 {
        fill: #fff;
      }
    </style>
  </defs>
  <g id="svg3086">
    <g>
      <path class="cls-1" d="M0,123.21v-30.81c3.16-.46,3.52-4.36,4.42-8.43C16.94,26.92,73.61-8.28,130.21,1.68c55.93,9.85,96.21,61.64,89.69,118.83-6.12,53.77-49.74,93.66-102.49,96.82-52.85,3.17-101.54-31.72-112.97-83.86-1.01-4.6-1.72-8.2-4.44-10.26ZM42.57,120.84c9.44-31.46,40.52-49.82,72.31-47.15,19.56,1.64,35.89,10.44,50.96,22.91,9.19-18.95,3.73-39.13-6.49-55.66-13.96-22.58-37.17-31.36-62.91-27.07C44.03,22.61,8.23,68.65,15.74,121.52c2.81,19.75,8.42,39.45,25.87,51.62l-2.77-28.48c-.64-6.54,1.43-16.19,3.72-23.82ZM57,122.63c-12.15,30.04,2.88,70.38,35.8,78.83,55.44,14.23,110.93-29.61,113.57-84.89,1.29-26.95-3.82-52.5-25.2-71.26,1.15,20.1,3.93,37.67-2.74,55.93-11.43,31.26-43.76,47.91-76.44,42.4-16.73-2.82-30.13-10.06-44.98-21.02ZM156.07,109.64c-23.99-29.99-67.43-29.61-90.45-2.04,11,15.71,27.84,23.45,44.86,23.53,17.22.08,34.98-6.01,45.58-21.49Z"/>
      <path class="cls-1" d="M895.63,153.36c16.25.18,32-4.19,38.3-19.75l21.92.57c-11.45,32.13-47.99,37.46-77.33,31.81-27.76-5.34-44.04-27.92-40.9-55.44,2.34-20.5,13.27-37.37,33.66-44.26,34.05-11.5,78.62-2.34,83.55,34.17l2.6,19.22-96.45.04c-1.48,19.99,14.5,33.41,34.65,33.64ZM934.14,106.73c-.24-16.3-10.66-25.59-24.04-28.96-21.16-5.33-45.38,4.2-50.05,28.82l74.09.14Z"/>
      <path class="cls-1" d="M530.95,150.48c16.39,3.06,39-.22,46.07-18.62l21.99.23c-7.91,23.81-29.95,33.49-53.71,33.41-17.88-.06-35.13-1.39-48.89-13.78-13.67-12.31-18.1-31.61-14.18-49.33,8.35-37.76,45.01-47.13,77.75-41.18,29.01,5.27,41.02,30.61,41.03,57.3l-96.45.19c-1.27,17.51,10.6,28.85,26.38,31.79ZM577.96,105.09c-.54-16.78-12.4-27.97-28.52-30.11-20.02-2.65-41.92,6.59-45.78,29.85l74.3.25Z"/>
      <path class="cls-1" d="M339.53,106.64c2.09,3.06,2.16,9.7,1.41,14.89l-51.54-.1-.22,45.71-17.77-.16.07-104.54,71.35-.15c3.14,3.12,2.97,12.03-.07,14.88l-53.38.17.07,29.47,50.07-.18Z"/>
      <path class="cls-1" d="M432.56,167.87l-22.4.19V63.61s21.17-.39,21.17-.39l1.92,15.85c13.01-14.29,25.92-20.68,43.97-18.45l.11,18.1c-20.78-2.21-44.48,7.56-44.55,28.86l-.21,60.3Z"/>
      <path class="cls-1" d="M801.09,167.01c-4.42.8-10.11.84-16.54.41l-.03-88.13-34.2-.63,1.43-15.35,82.2.03.66,15.41-33.64.58.12,87.67Z"/>
      <path class="cls-1" d="M699.88,153.16c.24,4.18.2,9.69-.06,14.59l-55.38.04.04-104.15h17.79s0,89.02,0,89.02l37.61.51Z"/>
      <path class="cls-1" d="M384.33,166.58c-5.31.78-11.78.8-17.14.18l.08-103.77,16.95-.51.11,104.09Z"/>
      <path class="cls-1" d="M731.32,167.09c-6.74.76-12.36.78-17.93-.06l.06-102.97,17.84-.42.03,103.45Z"/>
      <ellipse class="cls-1" cx="619.71" cy="108.2" rx="8.64" ry="8.58"/>
      <ellipse class="cls-1" cx="110.86" cy="108.79" rx="16.31" ry="16.21"/>
      <path class="cls-1" d="M1010.81,63.53c0,10.23-8.02,18.26-18.48,18.26s-18.58-8.03-18.58-18.26,8.25-18.04,18.58-18.04,18.48,8.03,18.48,18.04ZM978.36,63.53c0,8.03,5.95,14.41,14.08,14.41s13.76-6.38,13.76-14.3-5.83-14.52-13.86-14.52-13.97,6.49-13.97,14.41ZM989.47,72.99h-4.18v-18.04c1.65-.33,3.96-.55,6.93-.55,3.4,0,4.94.55,6.27,1.32.99.77,1.76,2.2,1.76,3.96,0,1.98-1.54,3.52-3.73,4.18v.22c1.76.66,2.75,1.98,3.3,4.4.56,2.75.88,3.85,1.33,4.51h-4.51c-.55-.66-.88-2.31-1.43-4.4-.32-1.98-1.42-2.86-3.73-2.86h-1.98v7.26ZM989.58,62.76h1.98c2.31,0,4.18-.77,4.18-2.64,0-1.65-1.21-2.75-3.85-2.75-1.1,0-1.87.11-2.31.22v5.17Z"/>
    </g>
  </g>
</svg>