<?xml version="1.0" encoding="UTF-8"?>
<svg id="Capa_2" data-name="Capa 2" xmlns="http://www.w3.org/2000/svg" viewBox="0 0 1013.15 202.37">
  <defs>
    <style>
      .cls-1 {
        fill: #fff;
      }
    </style>
  </defs>
  <g id="svg3086">
    <g>
      <polygon class="cls-1" points="1013.08 202.06 957.33 202.25 733.13 .34 788.77 0 1013.08 202.06"/>
      <polygon class="cls-1" points="234.17 202.37 117.19 33.03 140.12 .28 280.22 202.14 234.17 202.37"/>
      <polygon class="cls-1" points="656.34 202.36 539.38 33.06 562.28 .26 702.37 202.14 656.34 202.36"/>
      <path class="cls-1" d="M340.98,202.06c-7.54.57-14.12.03-21.45.14l.07-30.96c7.88.28,14.19.19,20.98-1.49,19.86-4.89,29.69-21.55,31.36-41.19V.09s36.23-.04,36.23-.04v126.22c-.57,21.29-9.17,44.4-25.49,58.39-11.58,9.93-26.08,16.23-41.71,17.4Z"/>
      <polygon class="cls-1" points="468.3 202.2 422.16 202.12 502.86 85.75 548.63 85.85 468.3 202.2"/>
      <polygon class="cls-1" points="46.14 202.2 0 202.13 80.72 85.74 126.47 85.84 46.14 202.2"/>
      <polygon class="cls-1" points="948.83 58.46 892.84 58.44 957.54 .07 1013.15 .26 948.83 58.46"/>
      <polygon class="cls-1" points="789.22 202.15 733.33 202.09 797.53 144.16 853.24 144.32 789.22 202.15"/>
    </g>
  </g>
</svg>