<?xml version="1.0" encoding="UTF-8"?>
<svg id="Capa_2" data-name="Capa 2" xmlns="http://www.w3.org/2000/svg" viewBox="0 0 1679.89 270.23">
  <defs>
    <style>
      .cls-1 {
        fill: #fff;
      }
    </style>
  </defs>
  <g id="svg3086">
    <g>
      <path class="cls-1" d="M485.46,176.91c-1.39-3.48-52.93-95.41-52.93-95.41,0,0-1.39-2.79-4.87-2.79h-33.43c-2.79,0-4.18,2.79-4.18,2.79,0,0-51.54,92.63-52.93,95.41-2.09,6.27,4.87,5.57,4.87,5.57h24.38c2.79-.7,4.18-2.79,4.18-2.79,0,0,6.27-11.84,6.96-13.23,2.09-2.09,4.87-2.09,4.87-2.09h58.5s2.79-.7,4.87,2.09c.7,1.39,6.96,13.23,6.96,13.23,0,0,1.39,2.09,4.18,2.79h24.38c-1.39,0,5.57,0,4.18-5.57ZM428.35,139.99h-33.43s-2.79,0-.7-3.48c1.39-2.79,15.32-29.95,15.32-29.95,0,0,1.39-1.39,2.79-1.39s2.79,1.39,2.79,1.39c0,0,13.93,27.16,15.32,29.95.7,3.48-2.09,3.48-2.09,3.48Z"/>
      <path class="cls-1" d="M505.65,182.48c-2.79,0-5.57-2.09-5.57-5.57v-93.33c0-2.79,2.79-5.57,5.57-5.57h20.89c2.79,0,5.57,2.79,5.57,5.57v68.25c0,2.79,2.79,5.57,5.57,5.57h58.5c2.79,0,5.57,2.79,5.57,5.57v14.63c0,2.79-2.79,5.57-5.57,5.57h-90.54v-.69h0Z"/>
      <path class="cls-1" d="M763.35,176.91c-1.39-3.48-52.93-95.41-52.93-95.41,0,0-1.39-2.79-4.87-2.79h-32.73c-2.79,0-4.87,2.79-4.87,2.79,0,0-51.54,92.63-52.93,95.41-2.09,6.27,4.87,5.57,4.87,5.57h24.38c2.79-.7,4.18-2.79,4.18-2.79,0,0,6.27-11.84,6.96-13.23,2.09-2.09,4.87-2.09,4.87-2.09h58.5s2.79-.7,4.87,2.09c.7,1.39,6.96,13.23,6.96,13.23,0,0,1.39,2.09,4.18,2.79h24.38c-.7,0,6.27,0,4.18-5.57ZM706.94,139.99h-34.13s-2.79,0-.7-3.48c1.39-2.79,15.32-29.95,15.32-29.95,0,0,1.39-1.39,2.79-1.39s2.79,1.39,2.79,1.39c0,0,13.93,27.16,15.32,29.95,1.39,3.48-1.39,3.48-1.39,3.48Z"/>
      <path class="cls-1" d="M905.42,130.24v-32.04c0-11.14-9.05-20.2-20.2-20.2h-101.68c-2.79,0-5.57,2.79-5.57,5.57v93.33c0,2.79,2.79,5.57,5.57,5.57h20.89c2.79,0,5.57-2.09,5.57-5.57v-15.32c0-2.79,2.09-5.57,5.57-5.57h52.93c2.79,0,5.57,2.09,5.57,5.57v15.32c0,2.79,2.79,5.57,5.57,5.57h20.89c2.79,0,5.57-2.09,5.57-5.57v-16.02c0-11.14-9.05-20.2-20.2-20.2h9.05c5.57.7,10.45-4.18,10.45-10.45ZM810.71,111.44c0-2.79,2.79-5.57,5.57-5.57h50.84c2.79,0,5.57,2.09,5.57,5.57v13.23c0,2.79-2.79,5.57-5.57,5.57h-50.84c-2.79,0-5.57-2.09-5.57-5.57v-13.23Z"/>
      <path class="cls-1" d="M1092.08,78.7h-40.39s-11.84-.7-17.41,13.23l-18.11,41.79s-2.79,7.66-4.87,7.66-4.87-7.66-4.87-7.66l-18.11-41.79c-6.27-13.93-17.41-13.23-17.41-13.23h-40.39c-2.79,0-5.57,2.09-5.57,5.57v92.63c0,2.79,2.09,5.57,5.57,5.57h22.98c2.79,0,5.57-2.09,5.57-5.57v-66.86c0-5.57,4.18,1.39,4.18,1.39l31.34,60.59c5.57,11.14,10.45,11.14,10.45,11.14h15.32s4.18,0,10.45-11.14l31.34-60.59s4.18-6.96,4.18-1.39v66.86c0,2.79,2.09,5.57,5.57,5.57h22.98c2.79,0,5.57-2.09,5.57-5.57v-93.32c-2.78-2.79-4.87-4.87-8.36-4.87Z"/>
      <path class="cls-1" d="M1425.68,78.7h-93.33c-13.23,0-23.68,10.45-24.38,23.68v56.41c0,13.23,10.45,23.68,23.68,24.38h94.72c13.23,0,23.68-11.14,23.68-24.38v-56.41c-.7-13.23-11.14-23.68-24.37-23.68ZM1400.61,104.47c8.36,0,15.32,6.96,15.32,15.32v22.29c0,8.36-6.96,15.32-14.63,15.32h-44.57c-8.36,0-15.32-6.96-14.63-15.32v-22.29c0-8.36,6.96-15.32,15.32-15.32h43.18Z"/>
      <path class="cls-1" d="M1631.84,78.7h-40.39s-11.84-.7-17.41,13.23l-18.11,41.79s-2.79,7.66-4.87,7.66-4.87-7.66-4.87-7.66l-18.11-41.79c-6.27-13.93-17.41-13.23-17.41-13.23h-40.39c-2.79,0-5.57,2.09-5.57,5.57v92.63c0,2.79,2.09,5.57,5.57,5.57h22.98c2.79,0,5.57-2.09,5.57-5.57v-66.86c0-5.57,4.18,1.39,4.18,1.39l31.34,60.59c5.57,11.14,10.45,11.14,10.45,11.14h15.32s4.18,0,10.45-11.14l31.34-60.59s4.18-6.96,4.18-1.39v66.86c0,2.79,2.09,5.57,5.57,5.57h22.98c2.79,0,5.57-2.09,5.57-5.57v-93.32c-2.79-2.79-4.88-4.87-8.36-4.87Z"/>
      <path class="cls-1" d="M1112.27,165.07c0-9.05,7.66-16.71,16.71-16.71s16.71,7.66,16.71,16.71-7.66,16.71-16.71,16.71c-9.75,0-16.71-7.66-16.71-16.71Z"/>
      <path class="cls-1" d="M1190.97,112.83c0-9.05,14.63-9.75,14.63-9.75h45.27c8.36,0,9.05,5.57,11.14,9.75,2.09,4.18,4.87,4.18,4.87,4.18h19.5c6.96,0,6.27-9.75,6.27-9.75v-11.84c0-17.41-29.95-17.41-29.95-17.41h-76.61c-27.86,0-27.86,31.34-27.86,31.34v41.79s0,31.34,27.86,31.34h76.61s29.95,0,29.95-17.41v-11.84s.7-9.75-6.27-9.75h-19.5s-2.79-.7-4.87,4.18c-2.09,4.18-2.79,9.75-11.14,9.75h-45.27s-14.63,0-14.63-9.75v-34.83Z"/>
      <path class="cls-1" d="M1679.89,94.72c0,9.05-7.66,16.71-16.71,16.71-9.75,0-16.71-7.66-16.71-16.71s7.66-16.71,16.71-16.71c9.75,0,16.71,7.66,16.71,16.71ZM1677.11,94.72c0-7.66-6.27-13.23-13.23-13.23-7.66,0-13.23,6.27-13.23,13.23,0,7.66,6.27,13.23,13.23,13.23,6.96,0,13.23-5.57,13.23-13.23ZM1664.57,87.06c3.48,0,6.27,2.09,6.27,4.87s-2.09,4.18-4.87,4.87l5.57,6.27h-3.48l-4.87-6.27h-2.09v5.57h-3.48v-16.02h6.96v.7h0ZM1660.39,89.15v4.87h4.18c2.09,0,3.48-.7,3.48-2.79,0-1.39-1.39-2.79-3.48-2.79h-4.18v.7Z"/>
      <path class="cls-1" d="M160.21,73.13h0c-4.18-4.18-11.14-4.18-15.32,0l-99.59,106.56,42.48-7.66s45.97-47.36,55.72-57.8c3.48-3.48,6.27-4.18,9.05-4.18s6.27.7,9.05,4.18c9.75,9.75,55.72,57.8,55.72,57.8l42.48,7.66-99.6-106.56Z"/>
      <path class="cls-1" d="M305.77,168.55v-66.16c0-1.39,0-13.93-6.27-25.07-7.66-12.54-20.2-19.5-20.2-20.2-.7,0-4.18-2.09-9.05-4.87-23.68-12.54-79.4-42.48-96.81-48.75-6.96-2.09-13.23-3.48-20.2-3.48h-.7c-6.27,0-13.23,1.39-20.2,3.48-17.41,6.27-73.13,36.21-96.81,48.75-4.87,2.79-8.36,4.87-9.75,4.87-.7,0-13.23,7.66-20.2,19.5C.02,88.45.02,101.68.02,101.68v66.16c0,.7-.7,13.93,6.27,25.07,7.66,12.54,20.2,19.5,20.2,20.2.7.7,4.18,2.09,9.05,4.87,23.68,12.54,78.7,42.48,96.81,48.75,6.96,2.09,13.23,3.48,20.2,3.48h.7c6.27,0,13.23-1.39,20.2-3.48,17.41-6.27,73.13-36.21,96.81-48.75,4.87-2.79,8.36-4.87,9.75-4.87.7,0,13.23-7.66,20.2-19.5,6.27-11.84,5.57-25.07,5.57-25.07ZM295.33,168.55c0,.7,0,11.14-4.87,18.8-4.87,8.36-14.63,14.63-16.02,16.02-.7,0-1.39.7-3.48,1.39-68.25,36.91-92.63,48.75-101.68,51.54-5.57,2.09-11.14,2.79-16.71,2.79h-.7c-5.57,0-11.14-.7-16.71-2.79-11.84-4.18-48.05-22.29-101.68-51.54-1.39-.7-2.79-1.39-2.79-1.39-.7,0-10.45-6.27-16.71-16.02-4.88-7.66-4.88-18.11-4.88-18.8v-66.16c0-.7,0-11.14,4.88-18.8,4.88-8.36,14.63-14.63,16.02-16.02.7,0,1.39-.7,2.79-1.39,53.63-29.25,89.84-47.36,101.68-51.54,5.57-2.09,11.14-2.79,16.71-2.79h2.09c5.57,0,11.14.7,16.71,2.79,11.84,4.18,48.05,22.29,101.68,51.54,1.39.7,2.79,1.39,2.79,1.39.7,0,10.45,6.96,16.71,16.02,4.87,8.36,4.87,18.8,4.87,18.8l-.7,66.16Z"/>
      <path class="cls-1" d="M227.77,69.65c9.23,0,16.71,7.49,16.71,16.71s-7.49,16.71-16.71,16.71-16.71-7.49-16.71-16.71c0-9.23,7.48-16.71,16.71-16.71Z"/>
    </g>
  </g>
</svg>