<?xml version="1.0" encoding="UTF-8"?>
<svg id="Capa_2" data-name="Capa 2" xmlns="http://www.w3.org/2000/svg" viewBox="0 0 1006.01 299.85">
  <defs>
    <style>
      .cls-1 {
        fill: #fff;
      }
    </style>
  </defs>
  <g id="svg3086">
    <g>
      <path id="path1626" class="cls-1" d="M375.13,168.85L427.78,5.01h-61.61l-31.08,97.07-.39-3.63-.18-3.64-.54-3.42-.41-3.63-.78-3.45-.76-3.45-.94-3.42-.95-3.42-1.16-3.46-1.1-3.24-1.54-3.42-1.33-3.23-1.74-3.08-1.71-3.24-1.93-3.27-1.89-3.04-4.02-5.53-4.34-5.16-4.61-4.73-5.14-4.62-5.15-4.2-5.53-3.81-5.91-3.42-6.13-3.19-6.3-2.9-6.47-2.49-6.68-2.13-6.83-1.83-7.27-1.36-7.24-1.31-7.43-.79-7.44-.36-7.84-.24-7.81.24-7.85.53-7.99.93-8.01,1.16-8,1.56-8.2,1.88-8.01,2.28-8.21,2.67-8.2,2.83-8.04,3.47-8.2,3.62-8.04,4.01-7.98,4.39-7.84,4.58-7.8,5.14-7.64,5.32-7.26,5.54-7.02,5.71-6.7,5.95-6.49,6.05-6.1,6.35-5.9,6.47-5.34,6.68-5.17,6.68-4.96,6.7-4.37,7.03-4.18,6.92-3.83,7.02-3.42,7.24-3.26,7.08-2.69,7.23-2.44,7.04-2.13,7.24-1.51,7.24-1.32,7.07-.93,7.24-.44,7.07-.17,6.86.17,6.9.82,6.84,1.1,6.63,1.33,6.72,1.9,6.46,2.5,6.11,2.67,6.32,3.23,5.93,3.62,5.71,3.84,5.34,4.15,4.95,4.43,4.74,4.76,4.38,4.97,4.03,5.15,3.85,5.52,3.43,5.72,3.21,5.94,2.85,6.08,2.49,6.47,2.28,6.5,1.92,6.64,1.51,6.91,1.35,6.84,1.15,7.26.6,7.25.37h7.25l7.42-.22,7.68-.57,7.6-.74,7.63-1.34,7.62-1.32,7.84-1.92,7.81-2.14,7.63-2.46,7.82-2.66,7.83-3.25,7.6-3.2,7.63-3.85,7.63-3.98,7.65-4.4v-12.2l-6.5,3.43-6.32,3.05-6.48,2.86-6.5,2.63-6.64,2.28-6.46,2.13-6.49,1.92-6.51,1.54-6.49,1.31-6.47,1-6.31.94-6.5.37-6.27.38h-6.11l-6.31-.18-5.9-.57-6.09-.8-5.74-.93-5.71-1.16-5.53-1.5-5.51-1.93-5.37-1.89-5.11-2.34-4.97-2.46-4.8-2.82-4.55-2.89-4.6-3.23-4.17-3.65-4.03-3.8-3.64-4-3.59-4.2-3.25-4.58-3.25-4.98-2.67-5.27-2.46-5.39-2.11-5.54-1.7-5.71-1.34-5.76-.99-5.87-.53-5.91-.38-6.13v-6.1l.38-6.07.72-6.33,1.17-6.09,1.33-6.32,1.72-6.3,1.94-6.31,2.45-6.06,2.46-6.29,3.06-6.15,3.25-6.08,3.42-6.1,4-5.95,4.03-5.87,4.38-5.71,4.77-5.72,4.97-5.55,5.3-5.54,5.52-5.33,5.72-5.12,6.1-4.95,6.32-4.78,6.49-4.58,6.65-4.39,6.86-4,6.89-3.84,7.06-3.44,6.87-3.04,6.99-2.88,7.11-2.42,7.05-2.34,7.06-1.9,7.07-1.73,6.85-1.13,7.05-1.11,6.86-.78,6.85-.39h6.7l6.65.16,6.49.39,6.48.78,6.32,1.14,6.06,1.33,6.12,1.76,5.72,1.88,5.75,2.3,5.51,2.46,5.36,2.9,4.96,3.01,4.76,3.44,4.77,3.83,4.19,3.99,4.21,4.17,3.83,4.6,3.39,4.99,2.87,4.38,2.47,4.38,2.14,4.39,1.87,4.77,1.54,4.57,1.31,4.76.96,4.99.94,4.95.59,5.12.21,5.19.2,5.33-.2,5.34-.39,5.53-.59,5.5-.76,5.53-.96,5.72-1.31,6.13-1.74,6.07-1.9,5.94-2.11,5.7-2.27,5.56-2.69,5.5-2.84,5.36-3.06,5.38-3.41,5.1-3.64,5.18-3.8,4.95-4.2,4.95-4.59,4.75-4.74,4.8-4.99,4.59-5.34,4.54,2.49.6,2.48.4,2.52.34,2.62.41,2.88.41,2.86.37h9.9l3.99-.2,4.2-.39,4-.79,2.87-.54,3.04-.6,2.87-.73,2.84-.96,2.7-.94,2.84-1.17,2.66-1.11,2.68-1.36,2.66-1.32,2.49-1.33,2.46-1.53,2.49-1.7,2.48-1.55,2.26-1.74,2.32-1.87,2.3-1.92,2.06-1.92,2.13-2.08,2.08-2.12,1.95-2.09,1.88-2.3,1.91-2.3,1.7-2.28,1.53-2.46,1.76-2.49,1.31-2.5,1.5-2.45,1.35-2.66,1.16-2.69,1.12-2.64,1.14-2.86.96-2.66Z"/>
      <path id="path1630" class="cls-1" d="M459.03,4.57l-71.29,224.55h61.59l27.83-88.16.38-.55v-.38l1.34-4.21,1.17-2.63,1.5-2.67,1.5-2.5,1.75-2.49,1.7-2.32,2.07-2.07,2.3-1.93,2.3-1.86,2.3-1.72,2.66-1.55,2.66-1.12,2.69-1.17,2.84-.95,3.06-.75,3.09-.54,3.06-.2,1.49.2,1.35.34,1.32.37,1.34.58,1.18.74,1.09.78,1.18.75.91.97.95,1.15.81.95.72,1.34.6,1.15.4,1.32.37,1.34.2,1.34v1.35l-.2,2.69-.58,2.47-32.41,99.95h62.04l36.55-113.89.6-1.7.55-1.73.35-1.9.21-1.92.55-2.12.43-2.27.14-2.44.21-2.3-.21-3.62-.57-3.64-.77-3.21-1.12-3.27-1.52-3.06-1.72-2.86-2.07-2.86-2.33-2.44-2.29-2.35-2.66-2.07-2.84-1.75-3.05-1.69-3.24-1.14-3.25-.95-3.42-.78-3.64-.38h-1.72l-1.5-.38h-2.15l-4.73.18-4.59.38-4.36.57-4.61.8-4.34.92-4.25,1.35-4.16,1.29-4.18,1.75-4.04,1.9-3.85,1.92-3.79,2.27-3.59,2.32-3.64,2.66-3.24,2.69-3.21,3.04-3.1,3.04,26.54-84.89h-61.64ZM193.38,61.28l-4.02.12-4.16.23-4.02.35-4.01.57-4.01.4-3.99.8-3.62.74-3.67.75-3.58,1.15-3.45,1.15-3.24,1.17-3.25,1.32-3.22,1.3-3.07,1.73-3.05,1.55-2.82,1.7-2.87,1.92-2.87,1.87-2.67,1.92-2.46,2.09-2.67,2.13-2.33,2.27-2.44,2.07-2.29,2.32-2.09,2.46-2.33,2.69-2.26,2.84-2.29,3.05-2.29,3.45-2.3,3.62,58.37,6.31,2.46-3.42,2.47-3.09,2.7-2.47,2.47-2.1,1.92-1.18,1.9-1.32,2.5-1.3,2.84-1.18,3.04-.89,3.07-.78,3.02-.54,3.27-.43h3.42l3.21.2,1.93.23,1.9.54,1.89.35,2.12.8,2.1.77,2.09.94,2.1.94,1.92.94.17,1.93.2,1.9-.2,1.92-.17,1.87-.38,1.97-.57,1.7-.8,1.72-.77,1.73-5.88,2.04-5.93,1.78-5.76,1.49-5.7,1.32-3.21.75-4.19,1.18-5.16,1.14-5.93,1.15-3.04.75-3.05.55-3.44.6-3.64.75-3.79.6-3.81.72-4.22.78-4.18.75-7.45,1.52-6.86,1.72-6.45,1.92-5.94,2.07-5.36,2.3-4.94,2.5-4.57,2.49-4.04,2.84-3.41,3.05-3.21,3.07-3.12,3.22-2.82,3.44-1.15,1.9-1.34,1.93-.94,1.89-1.17,2.1-.97,2.24-.94,2.18-.78,2.47-.72,2.49-.63,2.41-.32,2.32-.38,2.29-.21,2.3v2.07l.21,2.09.17,2.1.37,2.09.57,1.92.58,1.9.57,1.95.8,1.86.95,1.78.89,1.64,1.15,1.55,1.17,1.75,1.34,1.54,1.37,1.49,1.47,1.54,1.73,1.34,1.73,1.35,1.7,1.12,2.1,1.2,2.07.89,2.33.95,2.47.74,2.86.63,2.86.58,3.25.34,3.62.4,3.81.18h9.33l5.14-.18,5.33-.58,5.16-.95,4.99-.98,4.94-1.29,4.73-1.57,4.45-1.7,2.66-.92,2.44-1.2,2.7-1.32,2.86-1.52,4.21-2.27,4.18-2.52,4.18-2.81,4.24-3.44-.58,1.86-.37,1.75-.22,1.69v4.99l.58,3.07.4,1.34.54,1.3.57,1.35.77,1.35v.37h59.49l-.55-1.37-.37-1.47-.34-1.77-.23-1.69-.17-1.9.17-1.89.23-1.93.55-1.92,5.31-16.98,4.76-15.03,4.42-13.56,3.79-11.85,3.44-10.49,2.87-9.16,2.64-7.98,2.15-6.85.57-1.97.32-1.7.4-1.89.2-1.95.18-3.21v-2.1l-.18-3.98-.6-4.04-.74-3.82-1.34-3.58-1.5-3.48-1.97-3.42-2.07-3.05-2.46-2.84-2.66-2.86-2.87-2.32-3.07-2.29-3.22-1.87-3.45-1.55-3.62-1.32-3.79-.95-4.02-.75-3.84-.61-4.36-.57-4.76-.55-4.99-.41-5.11-.35-5.36-.23-5.54-.12h-13.91ZM920.58,61.28l-3.99.12-4.22.23-3.99.35-4.02.41-4.01.55-3.98.8-3.81.74-3.44.97-3.64.94-3.41,1.15-3.22,1.17-3.5,1.32-3.02,1.3-3.04,1.54-3.05,1.75-2.86,1.7-2.87,1.72-2.89,1.89-2.61,1.93-2.55,2.07-2.61,2.09-2.47,2.33-2.32,2.1-2.3,2.26-2.29,2.66-2.27,2.69-2.27,2.84-2.1,3.06-2.29,3.45-2.33,3.62,58.21,6.31,2.67-3.42,2.47-3.09,2.44-2.47,2.7-2.1,1.67-1.18,1.97-1.32,2.66-1.3,2.82-1.18,2.87-.89,3.06-.78,3.25-.54,3.24-.43h3.24l3.42.2,3.64.77,4.18,1.15,2.15.77,2.06.77,2.1.91,1.9.98.23,1.9v4.01l-.23,1.87-.38,1.97-.58,1.7-.75,1.72-.75,1.73-6.09,2.04-5.73,1.78-5.73,1.49-5.71,1.32-3.45.75-4.18,1.18-4.96,1.14-5.91,1.15-3.05.75-3.22.55-3.45.6-3.44.75-3.84.6-4.01.72-3.98.78-4.19.75-7.46,1.52-7.03,1.72-6.31,1.92-5.9,2.07-5.53,2.3-5,2.5-4.33,2.49-4.02,2.84-3.64,3.05-3.24,3.07-2.86,3.22-2.89,3.44-1.32,1.9-1.12,1.93-1.18,1.89-.92,2.1-.97,2.24-.98,2.18-.91,2.47-.81,2.49-.37,2.41-.55,2.32-.2,2.29-.21,2.3v2.07l.21,2.09.2,2.1.38,2.09.35,1.92.6,1.9.78,1.95.77,1.86.94,1.78.95,1.64.95,1.55,1.14,1.75,1.54,1.54,1.3,1.49,1.57,1.54,1.5,1.34,1.75,1.35,1.9,1.12,1.86,1.2,2.35.89,2.24.95,2.46.74,2.69.63,3.07.58,3.24.34,3.62.4,3.62.18h9.33l5.34-.18,5.16-.58,5.14-.95,5.17-.98,4.74-1.29,4.79-1.57,4.56-1.7,2.69-.92,2.47-1.2,2.69-1.32,2.86-1.52,3.98-2.27,4.42-2.52,4.16-2.81,4.22-3.44-.57,1.86-.4,1.75-.18,1.69-.21,1.93.21,3.05.58,3.07.37,1.34.6,1.3.55,1.35.77,1.35v.37h59.5l-.55-1.37-.58-1.7-.23-1.69-.38-1.87v-1.92l.21-1.93.17-1.75.44-1.7,5.5-16.98,4.76-15.03,4.24-13.56,3.81-11.85,3.21-10.49,2.87-9.16,2.47-7.98,2.29-6.85.97-3.67.74-3.84.18-3.21.2-2.1-.2-3.98-.54-4.04-.98-3.82-1.14-3.58-1.52-3.48-1.9-3.42-2.09-3.05-2.49-2.84-2.7-2.86-2.82-2.32-3.06-2.29-3.27-1.87-3.59-1.55-3.62-1.32-3.62-.95-4.02-.75-4.01-.61-4.38-.57-4.56-.55-4.97-.41-5.17-.35-5.33-.23-5.53-.12h-13.92ZM639.64,62.38l-36.8,114.11-.63,1.89-.32,1.93-.37,1.7-.21,1.89-.57,2.27-.37,2.29-.37,2.1v2.29l.2,3.64.54,3.45.78,3.42,1.15,3.24,1.32,3.01,1.72,3.05,2.09,2.72,2.07,2.46,2.49,2.3,2.69,2.09,2.84,1.92,3.09,1.5,3.24,1.18,3.24.89,3.44.78,3.58.23,1.57.37h8.6l4.54-.37,4.39-.57,4.38-.98,4.41-.97,4.21-1.12,4.19-1.57,4.18-1.47,4.02-1.92,3.82-1.89,3.81-2.3,3.81-2.3,3.42-2.52,3.47-2.61,3.42-2.9,3.04-3.04-7.08,22.31h61.05l52.79-162.51h-61.96l-28.42,88.33-.35,1.14-1.17,3.84-1.17,2.81-1.29,2.72-1.52,2.47-1.77,2.46-1.87,2.32-2.13,2.07-2.06,2.13-2.3,1.7-2.47,1.72-2.7,1.54-2.67,1.11-2.86,1.2-2.84.91-2.89.78-3.04.4-3.19.35-1.38-.23-1.32-.37-1.35-.38-1.34-.55-1.14-.52-1.14-.81-.97-.77-.98-.89-.94-1.2-.74-.98-.57-1.29-.57-1.15-.55-1.34-.21-1.55-.21-1.34-.17-1.5.38-2.49.57-2.5,32.01-100.12h-61.59ZM203.3,149.35l-2.87,9.76-.95,2.64-1.14,2.52-1.15,2.46-1.12,2.27-1.4,2.32-1.29,2.1-1.54,2.06-1.54,1.77-1.52,1.72-1.5,1.7-1.93,1.47-1.9,1.75-1.87,1.55-2.29,1.32-2.47,1.32-2.5,1.35-1.9.94-1.92.77-2.09.78-2.13.57-2.07.55-2.09.4-4.41.75-4.18.38h-2.3l-2.3-.2-1.9-.38-1.69-.35-1.52-.6-1.37-.75-1.12-1.15-1.34-1.32-.77-1.17-.77-1.32-.57-1.35-.38-1.52-.2-1.66v-1.55l.4-1.75.58-1.89.55-1.5.92-1.54.97-1.35.98-1.55,1.34-1.34,1.3-1.34,1.37-1.12,1.49-1.15,1.72-.95,2.13-1.14,2.47-.95,2.64-1.18,6.51-2.09,7.81-2.29,1.92-.57,2.29-.55,3.62-.77,3.64-.92,3.56-1.01,3.67-.75,3.61-.94,3.42-1.17,3.67-.95,3.41-1.15ZM930.49,149.35l-2.86,9.76-1.34,3.64-1.52,3.58-1.95,3.44-2.04,3.27-2.35,3.07-2.44,2.86-2.89,2.66-2.86,2.47-3.25,2.09-3.21,2.1-3.45,1.72-3.76,1.55-3.65,1.12-4.04.97-3.99.74-4.21.41h-4.56l-1.89-.41-1.72-.57-1.52-.57-1.35-.95-1.32-1.15-1.15-1.32-.75-1.17-.8-1.32-.52-1.35-.4-1.52-.17-1.66v-1.55l.35-1.75.58-1.89.55-1.5.77-1.54.94-1.35,1.15-1.55,1.17-1.34,1.34-1.34,1.52-1.12,1.52-1.15,1.7-.95,2.09-1.14,2.3-.95,2.84-1.18,6.32-2.09,8.01-2.29,1.9-.57,2.26-.55,3.64-.77,3.62-.92,3.62-1.01,3.62-.75,3.44-.94,3.62-1.17,3.62-.95,3.44-1.15Z"/>
      <path id="path1638" class="cls-1" d="M621.35,284.03v-7h17.55v22.44h-6.5v-2.45l-2.47,1.14-2.66.96-1.37.35-1.5.25-1.33.14h-1.34l-3.25-.14-2.84-.44-1.33-.38-1.34-.57-1.15-.54-1.14-.59-1.16-.74-1.12-.81-.96-.71-.96-.99-.72-1.16-.8-.93-.73-1.15-.58-1.31-1.17-2.49-.78-2.87-.37-2.64-.17-3.06.17-3.05.58-3.02.79-2.75,1.16-2.67.7-1.14.8-1.11.76-1.11.94-.96.96-1,1.16-.94,1.12-.76,1.33-.57,1.9-.93,2.3-.81,2.66-.38h4.59l1.72.24,1.51.14,1.56.4,1.5.41,1.32.5,1.16.83,1.15.73.93.78.95,1,.76.88.76,1.19.6,1.15.57,1.1.36,1.34.41,1.54-6.87,1.34-.58-1.57-.76-1.31-.96-1.11-1.14-1.01-1.5-.74-1.55-.57-1.72-.36h-3.42l-1.15.19-1.33.37-1.14.37-1.15.58-.94.57-.95.74-.79.81-.93,1.16-.6,1.12-.54,1.16-.42,1.3-.37,1.53-.17,1.35-.17,1.51v3.24l.17,1.56.17,1.3.37,1.51.42,1.35.54,1.15.79,1.16.74,1.12.79.75.95.76.94.57,1.15.59,1.14.38,1.33.37,1.15.19h1.31l2.11-.19,1.72-.16,1.55-.21,1.5-.38,1.14-.59,1.14-.57,1-.76,1.11-.75v-5.16h-11.06ZM553.63,278.7v-1.33l.2-1.55.38-1.34.18-1.53,1.14-3.02,1.36-2.85.74-1.38.79-1.31.93-1.11,1.14-1.13,1.16-1,1.14-.94,1.32-.74,1.14-.78,2.11-.58,2.1-.61,2.08-.38h4.82l2.05.38,2.11.61,1.93.7,1.67.83,1.73,1.11,1.57,1.14,1.48,1.58,1.18,1.48,1.12,1.52.96,1.71.96,1.91.57,2.17.37,2.09.4,2.02v4.45l-.4,2.06-.37,2.1-.57,1.92-.96,1.91-.96,1.74-.97,1.69-1.33,1.53-1.33,1.32-1.72,1.17-1.5,1.14-1.9.93-1.93.57-2.11.57-2.05.39h-4.43l-2.1-.39-2.09-.57-1.88-.57-1.94-.93-1.71-.94-1.53-1.37-1.34-1.32-1.3-1.53-1.16-1.53-.96-1.71-.78-1.9-.56-1.92-.57-2.05-.2-2.16-.2-2.26ZM562.05,278.53l.18,2.66.58,2.46.37,1.33.57,1.16.56,1.16.79.92.8.95.93.96.94.73,1.14.63,1.16.52,1.11.41,1.54.16,1.34.19,1.53-.19,1.36-.16,1.31-.41,1.13-.52,1.14-.63.99-.73.73-.96.95-.95.59-1.13.57-1.13.53-1.17.4-1.14.57-2.68.23-2.64-.23-2.69-.57-2.46-.4-1.32-.53-1.15-.57-.94-.59-1.15-.74-.95-.94-.81-.99-.74-1.14-.57-1.13-.58-1.31-.37-1.36-.2-1.53-.17-1.53.17-1.35.2-1.33.37-1.13.58-.95.57-1.15.74-.72.97-.8,1-.79.94-.56,1.12-.57,1.13-.37,1.16-.58,2.65-.18,2.7ZM435.77,299.28v-41.58h7.07l19.07,27.89v-27.89h7.64v41.58h-7.47l-18.69-27.02v27.02h-7.63ZM391.16,299.28v-41.58h8.22v16.43h18.48v-16.43h8v41.58h-8v-18.09h-18.48v18.09h-8.22ZM309.74,299.28v-41.58h29.91v7.09h-21.74v9.14h20.22v7.04h-20.22v11.27h22.52v7.04h-30.7ZM655.67,299.28v-17.52l-14.68-24.06h9.54l9.35,16.43,9.35-16.43h9.35l-14.7,24.26v17.32h-8.2ZM524.84,299.28v-41.17h8.23v34.12h18.3v7.04h-26.53ZM477.54,278.7v-1.33l.19-1.55.2-1.34.39-1.53.96-3.02,1.33-2.85.94-1.38.76-1.31.95-1.11,1.16-1.13.9-1,1.37-.94,1.14-.74,1.32-.78,1.92-.58,2.1-.61,2.31-.38h4.74l2.11.38,2.06.61,1.93.7,1.74.83,1.69,1.11,1.56,1.14,1.49,1.58,1.16,1.48,1.11,1.52.99,1.71.74,1.91.8,2.17.36,2.09.41,2.02v4.45l-.41,2.06-.36,2.1-.8,1.92-.74,1.91-.99,1.74-1.11,1.69-1.16,1.53-1.49,1.32-1.56,1.17-1.69,1.14-1.74.93-1.93.57-2.06.57-2.11.39h-4.37l-2.3-.39-1.89-.57-1.92-.57-1.91-.93-1.74-.94-1.51-1.37-1.33-1.32-1.34-1.53-1.12-1.53-.99-1.71-.72-1.9-.79-1.92-.39-2.05-.39-2.16v-2.26ZM485.93,278.53l.18,2.66.6,2.46.38,1.33.58,1.16.53,1.16.83.92.73.95.9.96,1.02.73.94.63,1.33.52,1.13.41,1.55.16,1.31.19,1.52-.19,1.34-.16,1.33-.41,1.15-.52,1.11-.63,1.01-.73.74-.96.76-.95.78-1.13.54-1.13.59-1.17.37-1.14.57-2.68.2-2.64-.2-2.69-.57-2.46-.37-1.32-.59-1.15-.54-.94-.56-1.15-.99-.95-.74-.81-1.01-.74-1.11-.57-1.15-.58-1.33-.37-1.34-.2-1.52-.17-1.53.17-1.33.2-1.34.37-1.12.58-1.15.57-.95.74-.75.97-.96,1-.6.94-.53,1.12-.58,1.13-.38,1.16-.6,2.65-.18,2.7ZM374.73,284.03l8.39,2.47-.38,1.73-.73,1.55-.59,1.31-.78,1.35-.96,1.32-.93.91-.96.97-1.14.99-1.14.76-1.33.75-1.33.6-1.34.37-1.52.35-1.52.25-1.5.14h-4.03l-1.93-.14-1.89-.6-1.92-.59-1.72-.74-1.69-.96-1.57-1.17-1.3-1.28-1.32-1.58-1.15-1.7-.97-1.91-.93-1.88-.59-2.13-.4-2.3-.38-2.06v-2.3l.19-2.16.19-2.24.4-2.12.78-2.08.74-1.92.97-1.92,1.15-1.71,1.32-1.48,1.52-1.39,1.52-1.14,1.7-.91,1.72-.97,1.94-.59,2.11-.4,2.08-.38h4.18l1.72.24,1.93.32,1.52.62,1.71.5,1.34.83,1.54.93,1.1.94,1.57,1.51,1.13,1.76.93,2.05.95,2.28-8.76,2.13-.4-1.5-.75-1.35-.93-1.32-1.15-.99-1.33-.72-1.33-.59-1.5-.4-1.76-.17-1.13.17h-1.14l-1.16.4-.94.36-.96.39-.93.57-.75.61-.8.94-.94,1.16-.78,1.12-.57,1.32-.54,1.56-.4,1.31-.36,1.51-.19,1.53v3.02l.19,1.57.36,1.37.4,1.47.54,1.37.57,1.13.78,1.31.94.99.8.75.75.73.93.63.96.35.94.38.97.37,1.13.19h1.12l1.73-.19,1.55-.37,1.52-.56,1.33-.97,1.15-1.31.93-1.53.75-1.72.77-2.11ZM281.48,299.28v-34.49h-11.83v-7.1h32.07v7.1h-12.02v34.49h-8.22Z"/>
    </g>
  </g>
</svg>