<?xml version="1.0" encoding="UTF-8"?>
<svg id="Capa_2" data-name="Capa 2" xmlns="http://www.w3.org/2000/svg" viewBox="0 0 1024.28 233.4">
  <defs>
    <style>
      .cls-1 {
        fill: #fff;
      }
    </style>
  </defs>
  <g id="svg3086">
    <g>
      <path class="cls-1" d="M1024.28,24.97c0,14.16-11.11,25.28-25.58,25.28s-25.73-11.12-25.73-25.28,11.42-24.97,25.73-24.97,25.58,11.12,25.58,24.97ZM979.36,24.97c0,11.12,8.23,19.95,19.49,19.95s19.04-8.83,19.04-19.8-8.07-20.1-19.19-20.1-19.34,8.98-19.34,19.95ZM994.74,38.06h-5.79V13.09c2.28-.46,5.48-.76,9.6-.76,4.71,0,6.84.76,8.68,1.83,1.36,1.07,2.43,3.04,2.43,5.48,0,2.74-2.13,4.87-5.17,5.79v.3c2.43.91,3.81,2.74,4.56,6.09.77,3.81,1.22,5.33,1.84,6.24h-6.25c-.76-.91-1.22-3.2-1.98-6.09-.45-2.74-1.97-3.96-5.17-3.96h-2.74v10.05ZM994.89,23.91h2.74c3.2,0,5.79-1.07,5.79-3.66,0-2.28-1.67-3.81-5.33-3.81-1.53,0-2.59.15-3.2.31v7.15Z"/>
      <g>
        <path class="cls-1" d="M147.98,174.81c12.12-1.02,19.62-8.36,19.69-20.18l22.98-.08c2.93,20.46-9.08,37.76-29.41,40.68-26.99,3.88-89.4,4.94-115.36-.78-14.89-3.28-25.83-14.76-28.44-29.94-4.58-26.67-4.41-53.86.32-80.6,4.38-24.77,27.46-33.06,49.66-33.08l66.67-.08c22.73-.03,56.22,9.49,56.62,37.75l.62,44.29-153.59.08c.24,17,.86,38.02,20.74,41.03,21.95,3.33,65.57,2.91,89.51.91ZM167.37,111.28c.12-9.18.18-16.25-1.02-23.94-1.13-7.29-10.25-12.64-17.77-13.22-26.69-2.06-52.45-1.83-79.51-.73-7.58.31-17.67,2.27-22.66,7.22-8.18,8.1-8.49,19.88-8.26,30.67h129.22Z"/>
        <path class="cls-1" d="M447.28,205.8l17.71-18.14c7.46,7.38,19.1,7.31,26.64-.12l54.03-53.22c4.02-3.96,7.86-9.89,9.25-15.32,2.06-8.09-4.62-15.82-9.39-19.17-26.63-18.7-58,43.69-97.64,67.74-15.86,9.63-33.77,6.97-46.42-6.11-7.8-8.07-15.63-17.61-14.84-29.99.69-10.83,7.12-21.8,14.91-29.61l54.68-54.81c5.87-5.88,12.86-11.1,20-15.04,15.72-8.69,33.95-5.2,45.63,8.47l-18.46,18.59c-7.86-7.96-19.92-6.96-27.89.94l-55.34,54.85c-7.3,7.24-7.34,17.49-1.99,24.26,6.19,7.82,15.48,8.78,24.67,3.55,28.58-16.27,39.92-45.21,73.2-65.6,16.77-10.27,35.79-8.27,49.46,5.63,8.31,8.45,16.87,18.1,16.91,31.01.04,10.39-5.93,21.23-13.5,28.96-22.05,22.52-43.46,44.67-66.43,65.62-16.49,15.03-39.26,15.14-55.18-2.49Z"/>
        <path class="cls-1" d="M761.66,160.27c-5.97,41.92-48.02,37.95-85.82,37.98-30.98.02-74.66,2.98-81.47-32.47-5.2-27.08-4.88-54.83-.02-82,6.52-36.46,50.73-33.4,79.83-33.39,32.46,0,80.05-4.23,86.34,35.25,3.95,24.8,4.67,49.92,1.14,74.64ZM716.34,172.69c11.39-.77,19.26-9.86,20.5-19.99,2.32-19.03,2.3-37.92-.11-56.79-1.42-11.12-10.07-19.15-21.43-20.07-25.1-2.03-50.28-2.02-75.27.14-12.02,1.04-20.16,8.06-21.98,20.14-2.77,18.4-2.83,38-.11,56.46,1.73,11.78,9.54,19.34,21.57,20.12,25.29,1.62,50.51,1.77,76.83,0Z"/>
        <path class="cls-1" d="M891.22,73.41c-15.68-1.21-31.33-1.18-46.03,0-19.15,1.56-31.99,16.51-32,34.97l-.05,89.56-24.9.09.38-92.92c.11-27.15,19.78-49.25,47.17-52.69,21.29-2.67,42.84-2.6,64.27-.11,26.37,3.06,47.46,23.54,47.71,50.06l.89,95.59-25.4.03.04-89.7c0-17.92-12.42-33.38-32.08-34.9Z"/>
        <path class="cls-1" d="M475.72,233.4c-14.52,0-28.33-6.45-38.9-18.16l-8.87-9.82,22.85-23.4c-7.23,3.56-14.99,5.42-22.69,5.42-13.64,0-26.71-5.75-36.8-16.19-.95-.99-2.14-2.22-3.44-3.64l.21,44.4-53.2.26-.12-103.88c-.01-9.72-6.01-19.98-19.39-20.98-6.95-.52-14.23-.78-21.65-.78-6.84,0-13.92.22-21.06.66-11.89.73-19.88,9.18-19.87,21.02l.06,103.74-53.52.04.19-27.97c-1.01,1.93-2.14,3.77-3.38,5.52-7.59,10.63-19.28,17.56-32.89,19.52-14.39,2.07-37.79,3.36-61.05,3.36-14.84,0-42.28-.56-59.34-4.32-20.64-4.55-35.7-20.38-39.3-41.32-4.83-28.14-4.72-56.88.33-85.44,4.95-27.96,28.69-44.68,63.52-44.72l66.78-.08c30.97,0,65.01,13.97,69.99,44.52,8.68-23.25,30.29-39.86,56.33-42.88,10.86-1.26,21.99-1.89,33.08-1.89s21.86.61,32.85,1.8c32.18,3.5,56.75,27.45,60.61,58.66,1.43-1.72,2.94-3.38,4.51-4.95l54.68-54.81c6.72-6.74,14.73-12.76,23.15-17.42,7.7-4.26,16.25-6.51,24.74-6.51,14.56,0,28.56,6.61,38.43,18.15l8.44,9.87-17.1,17.23c4.62-1.27,9.3-1.91,13.96-1.91,13.96,0,27.34,5.8,37.68,16.32,2.17,2.2,3.92,4.06,5.49,5.83,3.97-17.5,15.51-30.12,33.5-36.57,14.36-5.15,30.72-5.86,46.26-5.86,2.42,0,4.8.02,7.12.03h.08c2.14.02,4.21.03,6.2.03h.08c2.72,0,5.54-.03,8.44-.06h.1c3.12-.03,6.35-.07,9.64-.07,15.45,0,33.27.76,48.21,6.4,18.99,7.17,30.67,21.29,33.79,40.85.48,3.01.91,6.06,1.3,9.13,2.37-12.43,8.17-23.98,16.8-33.19,10.74-11.47,25.48-18.89,41.51-20.9,11.1-1.39,22.52-2.1,33.95-2.1s22.41.66,33.69,1.97c16.16,1.87,31.12,9.11,42.12,20.39,11.49,11.79,17.91,27.25,18.06,43.54l1.02,109.79-53.72.07.05-103.82c0-9.64-5.89-19.82-19.07-20.84-14.71-1.14-29.78-1.14-43.81,0-11.38.92-19.04,9.34-19.04,20.93l-.05,103.6-53.14.19.18-42.92c-10.51,43.16-55.68,43.16-80.5,43.16-2.97,0-5.95-.02-8.92-.05h-.15c-2.84-.02-5.67-.04-8.48-.04h-.37c-2.07,0-4.21.02-6.38.03h-.15c-2.51.02-5.07.04-7.66.04h-.13c-23.55,0-72.56,0-81.01-43.97-.94-4.88-1.73-9.95-2.35-15.1l-5.34,5.46c-20.44,20.9-39.74,40.64-60.89,59.92-10.4,9.48-23.26,14.7-36.23,14.7ZM430.86,205.48l7.53,8.34c10.16,11.26,23.42,17.46,37.33,17.46,12.44,0,24.8-5.02,34.8-14.14,21.1-19.24,40.38-38.96,60.8-59.83l6.12-6.26c.15-.15.3-.31.44-.47l1.89-2,.25,2.27c.65,5.87,1.53,11.64,2.59,17.18,8.11,42.25,55.94,42.25,78.92,42.25h.13c2.59,0,5.14-.02,7.64-.04h.15c2.18-.02,4.31-.03,6.39-.03h.37c2.82,0,5.66.02,8.5.04h.15c2.97.02,5.94.05,8.91.05,25.46,0,72.85,0,79.74-48.35.28-1.95.54-4.02.82-6.51l2.11.12-.23,54.5,48.89-.18.05-101.48c0-12.77,8.44-22.03,20.99-23.05,14.14-1.15,29.31-1.15,44.14,0,14.53,1.12,21.04,12.34,21.03,22.96l-.05,101.69,49.46-.07-1-107.65c-.15-15.74-6.35-30.68-17.46-42.07-10.66-10.93-25.16-17.95-40.84-19.77-11.2-1.3-22.46-1.96-33.45-1.96s-22.68.7-33.69,2.08c-15.53,1.95-29.81,9.14-40.22,20.25-10.37,11.07-16.53,25.63-17.33,40.99l-2.12.05c-.58-6.09-1.36-12.18-2.3-18.1-2.99-18.76-14.21-32.32-32.44-39.2-14.62-5.52-32.2-6.26-47.46-6.26-3.28,0-6.51.03-9.62.07l-.11-1.06v1.06c-2.9.03-5.73.06-8.45.06h-.08c-2,0-4.07-.02-6.19-.03h-.11c-2.31-.02-4.69-.03-7.11-.03-15.35,0-31.49.69-45.54,5.74-17.95,6.44-29.21,19.26-32.57,37.07l-.41,2.17-1.44-1.68c-1.9-2.22-4-4.48-6.8-7.33-9.94-10.11-22.79-15.68-36.17-15.68-5.81,0-11.66,1.04-17.39,3.1l-4.42,1.58,22.06-22.23-7.17-8.38c-9.46-11.06-22.88-17.4-36.81-17.4-8.13,0-16.33,2.16-23.71,6.24-8.25,4.57-16.1,10.47-22.68,17.06l-54.68,54.81c-2.11,2.11-4.11,4.4-5.96,6.78l-1.66,2.15-.23-2.71c-2.69-31.44-26.95-55.84-58.99-59.32-10.91-1.19-21.89-1.79-32.62-1.79s-22.05.63-32.83,1.88c-26.9,3.11-48.92,21.18-56.08,46.02l-1.72,5.96-.36-6.19c-1.33-22.84-23.3-47.42-68.41-47.42l-66.78.08c-33.72.04-56.68,16.1-61.43,42.97-5.01,28.32-5.12,56.82-.33,84.71,3.45,20.07,17.88,35.25,37.66,39.61,16.86,3.71,44.13,4.27,58.89,4.27,23.17,0,46.45-1.28,60.75-3.33,13.04-1.87,24.21-8.5,31.47-18.66,2.09-2.93,3.85-6.17,5.22-9.61l2.08-5.25-.25,36.42,49.26-.04-.05-101.62c0-13.03,8.78-22.33,21.86-23.14,7.18-.44,14.31-.67,21.19-.67,7.47,0,14.8.27,21.8.79,14.73,1.1,21.34,12.39,21.35,23.09l.12,101.75,48.95-.24-.23-47.99,1.88,2.19c1.96,2.28,3.85,4.24,5.23,5.67,9.69,10.02,22.21,15.54,35.27,15.54,8.89,0,17.87-2.6,25.97-7.51.75-.46,1.51-.93,2.25-1.41l7.87-5.06-33.34,34.14ZM478.18,181.19c-1.24,0-3.08-.35-4.78-2.03l-8.74-8.65.95-.74c11.99-9.4,23.16-21.25,33.01-31.7,13.12-13.93,27.98-29.7,36.49-29.7.8,0,1.92.14,3.52,1.27,2.5,1.76,4.53,4.69,4.68,6.14l.02.19-.05.19c-.79,2.97-3.26,6.93-6.02,9.65h0s-54.03,53.22-54.03,53.22c-1.82,1.79-3.74,2.17-5.04,2.17ZM467.86,170.69l7.04,6.96c1.19,1.17,2.44,1.42,3.28,1.42.9,0,2.24-.27,3.55-1.56l54.03-53.22c2.4-2.37,4.64-5.88,5.4-8.46-.24-.8-1.71-3.03-3.75-4.46-1.11-.78-1.76-.89-2.3-.89-7.59,0-23.39,16.77-34.93,29.02-9.65,10.25-20.55,21.81-32.31,31.18ZM104.8,164.39c-18.84,0-34.66-.83-44.54-2.32-6.18-.94-8.77-5.14-9.91-16.06l-.12-1.17,105.52-.06-.06,9.78c-.05,7.59-5.69,8.07-8.72,8.32-11.27.95-27.04,1.51-42.17,1.51ZM52.6,146.96c1.34,11.11,4.29,12.45,7.98,13.01,9.78,1.48,25.48,2.3,44.22,2.3,15.08,0,30.78-.56,42-1.5,3.82-.32,6.74-.98,6.77-6.22h1.06s-1.06,0-1.06,0l.05-7.64-101.02.05ZM678.32,162c-12.53,0-24.97-.41-38.05-1.25-6.23-.4-9.56-3.55-10.5-9.91-2.54-17.28-2.5-35.59.11-52.93.64-4.26,2.49-9.25,11.17-10,12.27-1.06,24.8-1.6,37.25-1.6s24.04.49,36.03,1.46c5.79.47,9.82,4.17,10.52,9.65,2.26,17.73,2.3,35.83.1,53.82h0c-.53,4.3-3.7,9.11-9.42,9.5-12.3.83-24.82,1.25-37.21,1.25ZM678.31,88.43c-12.38,0-24.85.53-37.06,1.59-7.14.62-8.67,4.31-9.26,8.2-2.58,17.14-2.62,35.23-.11,52.31.79,5.35,3.34,7.77,8.53,8.1,13.03.84,25.43,1.24,37.91,1.24s24.81-.42,37.07-1.25c4.52-.31,7.04-4.17,7.46-7.64,2.17-17.81,2.14-35.74-.1-53.3-.57-4.43-3.86-7.42-8.58-7.81-11.93-.97-24-1.46-35.86-1.46ZM431.61,133.96c-.74,0-2.27,0-4.07-2.27-1.61-2.04-1.92-5.4,1.03-8.32l55.34-54.85c1.91-1.89,4.27-2.97,6.47-2.97,1.7,0,3.2.65,4.47,1.94l5.58,5.65-.97.73c-12.96,9.7-22.7,20.59-31.29,30.2-10.16,11.37-18.94,21.18-31.28,28.21h0c-1.92,1.09-3.8,1.7-5.29,1.7ZM490.38,67.66c-1.65,0-3.47.86-4.98,2.36l-55.34,54.85c-2.15,2.14-1.81,4.3-.86,5.5,1.16,1.47,1.91,1.47,2.41,1.47,1.11,0,2.66-.52,4.24-1.42h0c12.04-6.85,20.71-16.55,30.74-27.78,8.44-9.44,17.98-20.12,30.63-29.75l-3.87-3.92c-.88-.89-1.82-1.31-2.96-1.31ZM155.41,99.31H50.51s.21-1.25.21-1.25c.69-4.01,2-6.86,4.11-8.95h0c1.35-1.33,6.96-3.44,14.72-3.76,13.53-.55,25.36-.81,36.19-.81,14.93,0,28.64.5,41.92,1.52,2.81.22,5.75,1.99,6.71,3.13l.19.23.04.3c.4,2.68.64,5.37.76,8.49l.04,1.1ZM53.06,97.18h100.13c-.12-2.45-.33-4.65-.64-6.82-.81-.76-2.99-2.02-5.05-2.18-13.22-1.02-26.88-1.52-41.76-1.52-10.79,0-22.6.27-36.1.81-7.52.3-12.5,2.35-13.31,3.15-1.57,1.56-2.62,3.66-3.27,6.56Z"/>
        <path class="cls-1" d="M316.42,73.37c-15.16-1.13-30.31-1.02-44.63-.13-19.64,1.21-33.11,16.24-33.1,35.1l.05,89.65-25.23.02.64-94.23c.18-27.12,20.87-48.35,47.97-51.49,20.91-2.42,41.89-2.36,62.79-.08,27.96,3.04,48.44,25.1,48.57,52.99l.44,92.8-24.97.12-.1-89.74c-.02-18.2-12.76-33.54-32.43-35.02Z"/>
      </g>
    </g>
  </g>
</svg>