<?xml version="1.0" encoding="UTF-8"?>
<svg id="Capa_2" data-name="Capa 2" xmlns="http://www.w3.org/2000/svg" viewBox="0 0 24 5.7">
  <defs>
    <style>
      .cls-1 {
        fill: #fff;
      }
    </style>
  </defs>
  <g id="Imou--Streamline-Simple-Icons">
    <path class="cls-1" d="M14.64,0c-1.57,0-2.86,1.28-2.86,2.85s1.28,2.85,2.86,2.85,2.86-1.28,2.86-2.85-1.28-2.85-2.86-2.85ZM4.82,0C3.44,0,2.32,1.13,2.32,2.5v2.95c0,.09.07.16.16.16h.97c.09,0,.16-.07.16-.16,0,0,0,0,0,0v-2.95c0-.67.54-1.21,1.21-1.21s1.21.54,1.21,1.21v2.95c0,.09.07.16.16.16h.97c.09,0,.16-.07.16-.16v-2.95c0-.67.54-1.21,1.21-1.21s1.21.54,1.21,1.21v2.95c0,.09.07.16.16.16h.97c.09,0,.16-.07.16-.16h0v-2.95C11.04,1.13,9.92,0,8.54,0c-.74,0-1.4.32-1.86.83C6.22.33,5.56,0,4.82,0ZM.16.14C.07.14,0,.21,0,.3c0,0,0,0,0,0v5.16C0,5.55.07,5.62.16,5.62h.96c.09,0,.16-.07.16-.16V.3c0-.09-.07-.16-.16-.16,0,0-.96,0-.96,0ZM18.45.14c-.09,0-.16.07-.16.16v1.45c0,.09.07.16.16.16h.96c.09,0,.16-.07.16-.16,0,0,0,0,0,0V.3c0-.09-.07-.16-.16-.16,0,0,0,0,0,0,0,0-.96,0-.96,0ZM22.88.14c-.09,0-.16.07-.16.16v1.45c0,.09.07.16.16.16h.96c.09,0,.16-.07.16-.16,0,0,0,0,0,0V.3c0-.09-.07-.16-.16-.16,0,0,0,0,0,0,0,0-.96,0-.96,0ZM14.64,1.28c.87,0,1.57.7,1.57,1.57s-.7,1.57-1.57,1.57-1.57-.7-1.57-1.57.71-1.57,1.57-1.57ZM18.45,2.54c-.09,0-.16.07-.16.16v.08c0,1.54,1.2,2.86,2.75,2.92,1.62.06,2.97-1.24,2.97-2.85v-.15c0-.09-.07-.16-.16-.16,0,0,0,0,0,0h-.96c-.09,0-.16.07-.16.16v.15c0,.87-.7,1.57-1.57,1.57s-1.57-.7-1.57-1.57v-.15c0-.09-.07-.16-.16-.16,0,0,0,0,0,0,0,0-.96,0-.96,0Z"/>
  </g>
</svg>